{
 "cells": [
  {
   "cell_type": "code",
   "execution_count": null,
   "metadata": {},
   "outputs": [
    {
     "name": "stdout",
     "output_type": "stream",
     "text": [
      "Using cpu for inference.\n",
      "Reading video frames...\n",
      "Number of frames available for inference: 1\n",
      "Extracting raw audio...\n",
      "(80, 2354)\n",
      "Length of mel chunks: 732\n",
      "Load checkpoint from: checkpoints/Wav2Lip-SD-GAN.pt\n",
      "Model loaded\n"
     ]
    },
    {
     "name": "stderr",
     "output_type": "stream",
     "text": [
      "ffmpeg version 7.1.1-essentials_build-www.gyan.dev Copyright (c) 2000-2025 the FFmpeg developers\n",
      "  built with gcc 14.2.0 (Rev1, Built by MSYS2 project)\n",
      "  configuration: --enable-gpl --enable-version3 --enable-static --disable-w32threads --disable-autodetect --enable-fontconfig --enable-iconv --enable-gnutls --enable-libxml2 --enable-gmp --enable-bzlib --enable-lzma --enable-zlib --enable-libsrt --enable-libssh --enable-libzmq --enable-avisynth --enable-sdl2 --enable-libwebp --enable-libx264 --enable-libx265 --enable-libxvid --enable-libaom --enable-libopenjpeg --enable-libvpx --enable-mediafoundation --enable-libass --enable-libfreetype --enable-libfribidi --enable-libharfbuzz --enable-libvidstab --enable-libvmaf --enable-libzimg --enable-amf --enable-cuda-llvm --enable-cuvid --enable-dxva2 --enable-d3d11va --enable-d3d12va --enable-ffnvcodec --enable-libvpl --enable-nvdec --enable-nvenc --enable-vaapi --enable-libgme --enable-libopenmpt --enable-libopencore-amrwb --enable-libmp3lame --enable-libtheora --enable-libvo-amrwbenc --enable-libgsm --enable-libopencore-amrnb --enable-libopus --enable-libspeex --enable-libvorbis --enable-librubberband\n",
      "  libavutil      59. 39.100 / 59. 39.100\n",
      "  libavcodec     61. 19.101 / 61. 19.101\n",
      "  libavformat    61.  7.100 / 61.  7.100\n",
      "  libavdevice    61.  3.100 / 61.  3.100\n",
      "  libavfilter    10.  4.100 / 10.  4.100\n",
      "  libswscale      8.  3.100 /  8.  3.100\n",
      "  libswresample   5.  3.100 /  5.  3.100\n",
      "  libpostproc    58.  3.100 / 58.  3.100\n",
      "Input #0, mp3, from '../sample_data/tharang1.mp3':\n",
      "  Metadata:\n",
      "    encoder         : Lavf58.76.100\n",
      "  Duration: 00:00:29.44, start: 0.025057, bitrate: 128 kb/s\n",
      "  Stream #0:0: Audio: mp3 (mp3float), 44100 Hz, stereo, fltp, 128 kb/s\n",
      "      Metadata:\n",
      "        encoder         : LAME3.100\n",
      "      Side data:\n",
      "        replaygain: track gain - -6.300000, track peak - unknown, album gain - unknown, album peak - unknown, \n",
      "Stream mapping:\n",
      "  Stream #0:0 -> #0:0 (mp3 (mp3float) -> pcm_s16le (native))\n",
      "Press [q] to stop, [?] for help\n",
      "Output #0, wav, to 'temp/temp.wav':\n",
      "  Metadata:\n",
      "    ISFT            : Lavf61.7.100\n",
      "  Stream #0:0: Audio: pcm_s16le ([1][0][0][0] / 0x0001), 44100 Hz, stereo, s16, 1411 kb/s\n",
      "      Metadata:\n",
      "        encoder         : Lavc61.19.101 pcm_s16le\n",
      "      Side data:\n",
      "        replaygain: track gain - -6.300000, track peak - unknown, album gain - unknown, album peak - unknown, \n",
      "[out#0/wav @ 000001eb6f1cfd80] video:0KiB audio:5067KiB subtitle:0KiB other streams:0KiB global headers:0KiB muxing overhead: 0.001503%\n",
      "size=    5067KiB time=00:00:29.41 bitrate=1411.2kbits/s speed= 581x    \n",
      "\n",
      "  0%|          | 0/6 [00:00<?, ?it/s]\n",
      "\n",
      "  0%|          | 0/1 [00:00<?, ?it/s]\u001b[A\n",
      "\n",
      "100%|██████████| 1/1 [00:20<00:00, 20.32s/it]\u001b[A\n",
      "100%|██████████| 1/1 [00:20<00:00, 20.32s/it]\n",
      "d:\\Wav2Lip\\.venv\\Lib\\site-packages\\torch\\serialization.py:1488: UserWarning: 'torch.load' received a zip file that looks like a TorchScript archive dispatching to 'torch.jit.load' (call 'torch.jit.load' directly to silence this warning)\n",
      "  warnings.warn(\n",
      "\n",
      " 17%|█▋        | 1/6 [00:39<03:17, 39.48s/it]\n",
      " 33%|███▎      | 2/6 [00:55<01:43, 25.86s/it]\n",
      " 50%|█████     | 3/6 [01:12<01:04, 21.53s/it]\n",
      " 67%|██████▋   | 4/6 [01:26<00:37, 18.63s/it]\n",
      " 83%|████████▎ | 5/6 [01:42<00:17, 17.78s/it]\n",
      "100%|██████████| 6/6 [01:54<00:00, 15.76s/it]\n",
      "100%|██████████| 6/6 [01:54<00:00, 19.08s/it]\n",
      "ffmpeg version 7.1.1-essentials_build-www.gyan.dev Copyright (c) 2000-2025 the FFmpeg developers\n",
      "  built with gcc 14.2.0 (Rev1, Built by MSYS2 project)\n",
      "  configuration: --enable-gpl --enable-version3 --enable-static --disable-w32threads --disable-autodetect --enable-fontconfig --enable-iconv --enable-gnutls --enable-libxml2 --enable-gmp --enable-bzlib --enable-lzma --enable-zlib --enable-libsrt --enable-libssh --enable-libzmq --enable-avisynth --enable-sdl2 --enable-libwebp --enable-libx264 --enable-libx265 --enable-libxvid --enable-libaom --enable-libopenjpeg --enable-libvpx --enable-mediafoundation --enable-libass --enable-libfreetype --enable-libfribidi --enable-libharfbuzz --enable-libvidstab --enable-libvmaf --enable-libzimg --enable-amf --enable-cuda-llvm --enable-cuvid --enable-dxva2 --enable-d3d11va --enable-d3d12va --enable-ffnvcodec --enable-libvpl --enable-nvdec --enable-nvenc --enable-vaapi --enable-libgme --enable-libopenmpt --enable-libopencore-amrwb --enable-libmp3lame --enable-libtheora --enable-libvo-amrwbenc --enable-libgsm --enable-libopencore-amrnb --enable-libopus --enable-libspeex --enable-libvorbis --enable-librubberband\n",
      "  libavutil      59. 39.100 / 59. 39.100\n",
      "  libavcodec     61. 19.101 / 61. 19.101\n",
      "  libavformat    61.  7.100 / 61.  7.100\n",
      "  libavdevice    61.  3.100 / 61.  3.100\n",
      "  libavfilter    10.  4.100 / 10.  4.100\n",
      "  libswscale      8.  3.100 /  8.  3.100\n",
      "  libswresample   5.  3.100 /  5.  3.100\n",
      "  libpostproc    58.  3.100 / 58.  3.100\n",
      "[aist#0:0/pcm_s16le @ 000002325fdc9c40] Guessed Channel Layout: stereo\n",
      "Input #0, wav, from 'temp/temp.wav':\n",
      "  Metadata:\n",
      "    encoder         : Lavf61.7.100\n",
      "  Duration: 00:00:29.41, bitrate: 1411 kb/s\n",
      "  Stream #0:0: Audio: pcm_s16le ([1][0][0][0] / 0x0001), 44100 Hz, stereo, s16, 1411 kb/s\n",
      "Input #1, avi, from 'temp/result.avi':\n",
      "  Metadata:\n",
      "    software        : Lavf58.76.100\n",
      "  Duration: 00:00:29.28, start: 0.000000, bitrate: 6667 kb/s\n",
      "  Stream #1:0: Video: mpeg4 (Simple Profile) (DIVX / 0x58564944), yuv420p, 1638x2048 [SAR 1:1 DAR 819:1024], 6668 kb/s, 25 fps, 25 tbr, 25 tbn\n",
      "Stream mapping:\n",
      "  Stream #1:0 -> #0:0 (mpeg4 (native) -> h264 (libx264))\n",
      "  Stream #0:0 -> #0:1 (pcm_s16le (native) -> aac (native))\n",
      "Press [q] to stop, [?] for help\n",
      "[libx264 @ 000002325fdb11c0] -qscale is ignored, -crf is recommended.\n",
      "[libx264 @ 000002325fdb11c0] using SAR=1/1\n",
      "[libx264 @ 000002325fdb11c0] using cpu capabilities: MMX2 SSE2Fast SSSE3 SSE4.2 AVX FMA3 BMI2 AVX2\n",
      "[libx264 @ 000002325fdb11c0] profile High, level 5.0, 4:2:0, 8-bit\n",
      "[libx264 @ 000002325fdb11c0] 264 - core 164 r3204 373697b - H.264/MPEG-4 AVC codec - Copyleft 2003-2025 - http://www.videolan.org/x264.html - options: cabac=1 ref=3 deblock=1:0:0 analyse=0x3:0x113 me=hex subme=7 psy=1 psy_rd=1.00:0.00 mixed_ref=1 me_range=16 chroma_me=1 trellis=1 8x8dct=1 cqm=0 deadzone=21,11 fast_pskip=1 chroma_qp_offset=-2 threads=12 lookahead_threads=2 sliced_threads=0 nr=0 decimate=1 interlaced=0 bluray_compat=0 constrained_intra=0 bframes=3 b_pyramid=2 b_adapt=1 b_bias=0 direct=1 weightb=1 open_gop=0 weightp=2 keyint=250 keyint_min=25 scenecut=40 intra_refresh=0 rc_lookahead=40 rc=crf mbtree=1 crf=23.0 qcomp=0.60 qpmin=0 qpmax=69 qpstep=4 ip_ratio=1.40 aq=1:1.00\n",
      "Output #0, mp4, to '../results/result_voice.mp4':\n",
      "  Metadata:\n",
      "    encoder         : Lavf61.7.100\n",
      "  Stream #0:0: Video: h264 (avc1 / 0x31637661), yuv420p(tv, progressive), 1638x2048 [SAR 1:1 DAR 819:1024], q=2-31, 25 fps, 12800 tbn\n",
      "      Metadata:\n",
      "        encoder         : Lavc61.19.101 libx264\n",
      "      Side data:\n",
      "        cpb: bitrate max/min/avg: 0/0/0 buffer size: 0 vbv_delay: N/A\n",
      "  Stream #0:1: Audio: aac (LC) (mp4a / 0x6134706D), 44100 Hz, stereo, fltp, 128 kb/s\n",
      "      Metadata:\n",
      "        encoder         : Lavc61.19.101 aac\n",
      "frame=    0 fps=0.0 q=0.0 size=       0KiB time=N/A bitrate=N/A speed=N/A    \n",
      "frame=    2 fps=1.9 q=28.0 size=       0KiB time=00:00:00.00 bitrate=N/A speed=   0x    \n",
      "frame=   22 fps= 14 q=28.0 size=     512KiB time=00:00:00.80 bitrate=5243.4kbits/s speed=0.51x    \n",
      "frame=   45 fps= 21 q=28.0 size=     512KiB time=00:00:01.68 bitrate=2496.8kbits/s speed= 0.8x    \n",
      "frame=   62 fps= 24 q=28.0 size=     512KiB time=00:00:02.27 bitrate=1843.4kbits/s speed=0.872x    \n",
      "frame=   79 fps= 25 q=28.0 size=     512KiB time=00:00:03.08 bitrate=1361.9kbits/s speed=0.984x    \n",
      "frame=   94 fps= 26 q=28.0 size=     512KiB time=00:00:03.68 bitrate=1139.9kbits/s speed=   1x    \n",
      "frame=  112 fps= 27 q=28.0 size=     512KiB time=00:00:04.40 bitrate= 953.3kbits/s speed=1.05x    \n",
      "frame=  129 fps= 27 q=28.0 size=     768KiB time=00:00:05.08 bitrate=1238.6kbits/s speed=1.08x    \n",
      "frame=  145 fps= 28 q=28.0 size=     768KiB time=00:00:05.71 bitrate=1101.5kbits/s speed=1.09x    \n",
      "frame=  163 fps= 28 q=28.0 size=     768KiB time=00:00:06.44 bitrate= 977.0kbits/s speed=1.12x    \n",
      "frame=  180 fps= 29 q=28.0 size=     768KiB time=00:00:07.12 bitrate= 883.7kbits/s speed=1.13x    \n",
      "frame=  199 fps= 29 q=28.0 size=     768KiB time=00:00:07.88 bitrate= 798.5kbits/s speed=1.16x    \n",
      "frame=  223 fps= 30 q=28.0 size=     768KiB time=00:00:08.84 bitrate= 711.7kbits/s speed=1.21x    \n",
      "frame=  239 fps= 30 q=28.0 size=     768KiB time=00:00:09.48 bitrate= 663.7kbits/s speed= 1.2x    \n",
      "frame=  249 fps= 30 q=28.0 size=     768KiB time=00:00:09.88 bitrate= 636.8kbits/s speed=1.18x    \n",
      "frame=  260 fps= 29 q=28.0 size=    1280KiB time=00:00:10.32 bitrate=1016.1kbits/s speed=1.16x    \n",
      "frame=  281 fps= 30 q=28.0 size=    1536KiB time=00:00:11.16 bitrate=1127.5kbits/s speed=1.18x    \n",
      "frame=  299 fps= 30 q=28.0 size=    1536KiB time=00:00:11.88 bitrate=1059.2kbits/s speed=1.19x    \n",
      "frame=  312 fps= 30 q=28.0 size=    1536KiB time=00:00:12.40 bitrate=1014.8kbits/s speed=1.18x    \n",
      "frame=  335 fps= 30 q=28.0 size=    1536KiB time=00:00:13.32 bitrate= 944.7kbits/s speed=1.21x    \n",
      "frame=  355 fps= 31 q=28.0 size=    1536KiB time=00:00:14.12 bitrate= 891.2kbits/s speed=1.22x    \n",
      "frame=  379 fps= 31 q=28.0 size=    1536KiB time=00:00:15.08 bitrate= 834.4kbits/s speed=1.25x    \n",
      "frame=  401 fps= 32 q=28.0 size=    1536KiB time=00:00:15.96 bitrate= 788.4kbits/s speed=1.27x    \n",
      "frame=  423 fps= 32 q=28.0 size=    1792KiB time=00:00:16.84 bitrate= 871.8kbits/s speed=1.28x    \n",
      "frame=  449 fps= 33 q=28.0 size=    1792KiB time=00:00:17.88 bitrate= 821.1kbits/s speed=1.31x    \n",
      "frame=  471 fps= 33 q=28.0 size=    1792KiB time=00:00:18.76 bitrate= 782.5kbits/s speed=1.32x    \n",
      "frame=  489 fps= 33 q=28.0 size=    1792KiB time=00:00:19.48 bitrate= 753.6kbits/s speed=1.33x    \n",
      "frame=  503 fps= 33 q=28.0 size=    2304KiB time=00:00:20.04 bitrate= 941.9kbits/s speed=1.32x    \n",
      "frame=  526 fps= 33 q=28.0 size=    2304KiB time=00:00:20.96 bitrate= 900.5kbits/s speed=1.33x    \n",
      "frame=  538 fps= 33 q=28.0 size=    2304KiB time=00:00:21.44 bitrate= 880.4kbits/s speed=1.32x    \n",
      "frame=  550 fps= 33 q=28.0 size=    2304KiB time=00:00:21.92 bitrate= 861.1kbits/s speed= 1.3x    \n",
      "frame=  566 fps= 33 q=28.0 size=    2560KiB time=00:00:22.52 bitrate= 931.1kbits/s speed= 1.3x    \n",
      "frame=  582 fps= 33 q=28.0 size=    2560KiB time=00:00:23.20 bitrate= 904.0kbits/s speed= 1.3x    \n",
      "frame=  605 fps= 33 q=28.0 size=    2560KiB time=00:00:24.12 bitrate= 869.5kbits/s speed=1.31x    \n",
      "frame=  626 fps= 33 q=28.0 size=    2560KiB time=00:00:24.96 bitrate= 840.2kbits/s speed=1.32x    \n",
      "frame=  650 fps= 33 q=28.0 size=    2560KiB time=00:00:25.92 bitrate= 809.1kbits/s speed=1.34x    \n",
      "frame=  672 fps= 34 q=28.0 size=    2560KiB time=00:00:27.95 bitrate= 750.2kbits/s speed= 1.4x    \n",
      "frame=  699 fps= 34 q=28.0 size=    2816KiB time=N/A bitrate=N/A speed=N/A    \n",
      "frame=  723 fps= 35 q=-1.0 size=    2816KiB time=N/A bitrate=N/A speed=N/A    \n",
      "[out#0/mp4 @ 000002325fd38dc0] video:2439KiB audio:464KiB subtitle:0KiB other streams:0KiB global headers:0KiB muxing overhead: 0.874905%\n",
      "frame=  732 fps= 35 q=-1.0 Lsize=    2928KiB time=00:00:29.20 bitrate= 821.5kbits/s speed=1.39x    \n",
      "[libx264 @ 000002325fdb11c0] frame I:3     Avg QP:14.43  size:362693\n",
      "[libx264 @ 000002325fdb11c0] frame P:185   Avg QP:18.36  size:  5175\n",
      "[libx264 @ 000002325fdb11c0] frame B:544   Avg QP:23.16  size:   829\n",
      "[libx264 @ 000002325fdb11c0] consecutive B-frames:  0.7%  0.5%  0.4% 98.4%\n",
      "[libx264 @ 000002325fdb11c0] mb I  I16..4: 10.0% 89.3%  0.7%\n",
      "[libx264 @ 000002325fdb11c0] mb P  I16..4:  0.1%  1.0%  0.0%  P16..4:  3.8%  0.9%  0.6%  0.0%  0.0%    skip:93.7%\n",
      "[libx264 @ 000002325fdb11c0] mb B  I16..4:  0.0%  0.1%  0.0%  B16..8:  2.7%  0.1%  0.0%  direct: 0.0%  skip:97.1%  L0:54.5% L1:44.0% BI: 1.5%\n",
      "[libx264 @ 000002325fdb11c0] 8x8 transform intra:90.4% inter:94.5%\n",
      "[libx264 @ 000002325fdb11c0] coded y,uvDC,uvAC intra: 71.3% 57.3% 17.7% inter: 0.7% 0.7% 0.1%\n",
      "[libx264 @ 000002325fdb11c0] i16 v,h,dc,p: 58% 17% 12% 13%\n",
      "[libx264 @ 000002325fdb11c0] i8 v,h,dc,ddl,ddr,vr,hd,vl,hu: 22% 22% 32%  3%  4%  4%  5%  4%  5%\n",
      "[libx264 @ 000002325fdb11c0] i4 v,h,dc,ddl,ddr,vr,hd,vl,hu: 30% 32%  9%  3%  8%  5%  8%  3%  2%\n",
      "[libx264 @ 000002325fdb11c0] i8c dc,h,v,p: 57% 21% 17%  5%\n",
      "[libx264 @ 000002325fdb11c0] Weighted P-Frames: Y:0.0% UV:0.0%\n",
      "[libx264 @ 000002325fdb11c0] ref P L0: 64.3%  7.1% 18.9%  9.7%\n",
      "[libx264 @ 000002325fdb11c0] ref B L0: 78.6% 15.7%  5.7%\n",
      "[libx264 @ 000002325fdb11c0] ref B L1: 93.2%  6.8%\n",
      "[libx264 @ 000002325fdb11c0] kb/s:682.14\n",
      "[aac @ 000002325fe5e200] Qavg: 848.740\n"
     ]
    }
   ],
   "source": [
    "!cd Wav2Lip && python inference.py --checkpoint_path \"checkpoints/Wav2Lip-SD-GAN.pt\" --face \"../sample_data/img_1.jpg\" --audio \"../sample_data/sound.mp3\""
   ]
  },
  {
   "cell_type": "code",
   "execution_count": null,
   "metadata": {},
   "outputs": [],
   "source": []
  }
 ],
 "metadata": {
  "kernelspec": {
   "display_name": ".venv",
   "language": "python",
   "name": "python3"
  },
  "language_info": {
   "codemirror_mode": {
    "name": "ipython",
    "version": 3
   },
   "file_extension": ".py",
   "mimetype": "text/x-python",
   "name": "python",
   "nbconvert_exporter": "python",
   "pygments_lexer": "ipython3",
   "version": "3.11.9"
  }
 },
 "nbformat": 4,
 "nbformat_minor": 2
}
